<?xml version="1.0" encoding="UTF-8" standalone="no"?>
<!DOCTYPE svg PUBLIC "-//W3C//DTD SVG 1.1//EN" "http://www.w3.org/Graphics/SVG/1.1/DTD/svg11.dtd">
<svg width="100%" height="100%" viewBox="0 0 2215 751" version="1.1" xmlns="http://www.w3.org/2000/svg" xmlns:xlink="http://www.w3.org/1999/xlink" xml:space="preserve" xmlns:serif="http://www.serif.com/" style="fill-rule:evenodd;clip-rule:evenodd;stroke-miterlimit:10;">
    <g transform="matrix(1,0,0,1,-2491.13,0)">
        <g id="Page-2" serif:id="Page 2" transform="matrix(4.16667,0,0,4.16667,2491.13,0)">
            <rect x="0" y="0" width="531.442" height="180.113" style="fill:none;"/>
            <clipPath id="_clip1">
                <rect x="0" y="0" width="531.442" height="180.113"/>
            </clipPath>
            <g clip-path="url(#_clip1)">
                <g id="cells">
                    <g transform="matrix(1,0,0,1,54,117.667)">
                        <path d="M0,-18L-45,-18L-45,0L0,0" style="fill:none;stroke:rgb(35,31,32);stroke-width:3px;"/>
                    </g>
                    <g transform="matrix(1,0,0,1,81,117.667)">
                        <path d="M0,-18L45,-18L45,0L0,0" style="fill:none;stroke:rgb(35,31,32);stroke-width:3px;"/>
                    </g>
                    <g transform="matrix(-1,-0,-0,1,288,37.221)">
                        <rect x="126" y="62.446" width="36" height="18" style="fill:rgb(255,189,146);stroke:rgb(35,31,32);stroke-width:3px;"/>
                    </g>
                    <g transform="matrix(-1,-0,-0,1,360,37.221)">
                        <rect x="162" y="62.446" width="36" height="18" style="fill:rgb(255,189,146);stroke:rgb(35,31,32);stroke-width:3px;"/>
                    </g>
                    <g transform="matrix(-1,-0,-0,1,432,37.221)">
                        <rect x="198" y="62.446" width="36" height="18" style="fill:rgb(255,189,146);stroke:rgb(35,31,32);stroke-width:3px;"/>
                    </g>
                    <g transform="matrix(-1,-0,-0,1,576,37.221)">
                        <rect x="270" y="62.446" width="36" height="18" style="fill:rgb(255,189,146);stroke:rgb(35,31,32);stroke-width:3px;"/>
                    </g>
                    <g transform="matrix(-1,-0,-0,1,648,37.221)">
                        <rect x="306" y="62.446" width="36" height="18" style="fill:rgb(255,189,146);stroke:rgb(35,31,32);stroke-width:3px;"/>
                    </g>
                </g>
                <g id="labels">
                    <g transform="matrix(1,0,0,1,12.5605,126.667)">
                        <path d="M0,0L109.879,0" style="fill:none;stroke:rgb(35,31,32);stroke-width:1px;"/>
                    </g>
                    <g transform="matrix(1,0,0,1,12.9629,126.667)">
                        <path d="M0,0C1.045,-1.045 1.543,-3.111 1.584,-4.545C0.151,-2.62 -1.71,-0.941 -3.963,0C-1.71,0.901 0.069,2.682 1.584,4.545C1.461,3.01 1.086,1.146 0,0" style="fill:rgb(35,31,32);fill-rule:nonzero;"/>
                    </g>
                    <g transform="matrix(1,0,0,1,122.037,126.667)">
                        <path d="M0,0C-1.045,-1.045 -1.543,-3.111 -1.584,-4.545C-0.151,-2.62 1.71,-0.941 3.963,0C1.71,0.901 -0.069,2.682 -1.584,4.545C-1.461,3.01 -1.086,1.146 0,0" style="fill:rgb(35,31,32);fill-rule:nonzero;"/>
                    </g>
                    <g transform="matrix(1,0,0,1,129.56,126.667)">
                        <path d="M0,0L28.879,0" style="fill:none;stroke:rgb(35,31,32);stroke-width:1px;"/>
                    </g>
                    <g transform="matrix(1,0,0,1,129.963,126.667)">
                        <path d="M0,0C1.045,-1.045 1.543,-3.111 1.584,-4.545C0.151,-2.62 -1.71,-0.941 -3.963,0C-1.71,0.901 0.069,2.682 1.584,4.545C1.461,3.01 1.086,1.146 0,0" style="fill:rgb(35,31,32);fill-rule:nonzero;"/>
                    </g>
                    <g transform="matrix(1,0,0,1,158.037,126.667)">
                        <path d="M0,0C-1.045,-1.045 -1.543,-3.111 -1.584,-4.545C-0.151,-2.62 1.71,-0.941 3.963,0C1.71,0.901 -0.069,2.682 -1.584,4.545C-1.461,3.01 -1.086,1.146 0,0" style="fill:rgb(35,31,32);fill-rule:nonzero;"/>
                    </g>
                    <g transform="matrix(1,0,0,1,165.56,126.667)">
                        <path d="M0,0L28.879,0" style="fill:none;stroke:rgb(35,31,32);stroke-width:1px;"/>
                    </g>
                    <g transform="matrix(1,0,0,1,165.963,126.667)">
                        <path d="M0,0C1.045,-1.045 1.543,-3.111 1.584,-4.545C0.151,-2.62 -1.71,-0.941 -3.963,0C-1.71,0.901 0.069,2.682 1.584,4.545C1.461,3.01 1.086,1.146 0,0" style="fill:rgb(35,31,32);fill-rule:nonzero;"/>
                    </g>
                    <g transform="matrix(1,0,0,1,194.037,126.667)">
                        <path d="M0,0C-1.045,-1.045 -1.543,-3.111 -1.584,-4.545C-0.151,-2.62 1.71,-0.941 3.963,0C1.71,0.901 -0.069,2.682 -1.584,4.545C-1.461,3.01 -1.086,1.146 0,0" style="fill:rgb(35,31,32);fill-rule:nonzero;"/>
                    </g>
                    <g transform="matrix(1,0,0,1,201.56,126.667)">
                        <path d="M0,0L28.879,0" style="fill:none;stroke:rgb(35,31,32);stroke-width:1px;"/>
                    </g>
                    <g transform="matrix(1,0,0,1,201.963,126.667)">
                        <path d="M0,0C1.045,-1.045 1.543,-3.111 1.584,-4.545C0.151,-2.62 -1.71,-0.941 -3.963,0C-1.71,0.901 0.069,2.682 1.584,4.545C1.461,3.01 1.086,1.146 0,0" style="fill:rgb(35,31,32);fill-rule:nonzero;"/>
                    </g>
                    <g transform="matrix(1,0,0,1,230.037,126.667)">
                        <path d="M0,0C-1.045,-1.045 -1.543,-3.111 -1.584,-4.545C-0.151,-2.62 1.71,-0.941 3.963,0C1.71,0.901 -0.069,2.682 -1.584,4.545C-1.461,3.01 -1.086,1.146 0,0" style="fill:rgb(35,31,32);fill-rule:nonzero;"/>
                    </g>
                    <g transform="matrix(1,0,0,1,273.56,126.667)">
                        <path d="M0,0L28.879,0" style="fill:none;stroke:rgb(35,31,32);stroke-width:1px;"/>
                    </g>
                    <g transform="matrix(1,0,0,1,273.963,126.667)">
                        <path d="M0,0C1.045,-1.045 1.543,-3.111 1.584,-4.545C0.151,-2.62 -1.71,-0.941 -3.963,0C-1.71,0.901 0.069,2.682 1.584,4.545C1.461,3.01 1.086,1.146 0,0" style="fill:rgb(35,31,32);fill-rule:nonzero;"/>
                    </g>
                    <g transform="matrix(1,0,0,1,302.037,126.667)">
                        <path d="M0,0C-1.045,-1.045 -1.543,-3.111 -1.584,-4.545C-0.151,-2.62 1.711,-0.941 3.963,0C1.711,0.901 -0.069,2.682 -1.584,4.545C-1.461,3.01 -1.086,1.146 0,0" style="fill:rgb(35,31,32);fill-rule:nonzero;"/>
                    </g>
                    <g transform="matrix(1,0,0,1,309.56,126.667)">
                        <path d="M0,0L28.879,0" style="fill:none;stroke:rgb(35,31,32);stroke-width:1px;"/>
                    </g>
                    <g transform="matrix(1,0,0,1,309.963,126.667)">
                        <path d="M0,0C1.045,-1.045 1.543,-3.111 1.584,-4.545C0.151,-2.62 -1.711,-0.941 -3.963,0C-1.711,0.901 0.069,2.682 1.584,4.545C1.461,3.01 1.086,1.146 0,0" style="fill:rgb(35,31,32);fill-rule:nonzero;"/>
                    </g>
                    <g transform="matrix(1,0,0,1,338.037,126.667)">
                        <path d="M0,0C-1.045,-1.045 -1.543,-3.111 -1.584,-4.545C-0.151,-2.62 1.711,-0.941 3.963,0C1.711,0.901 -0.069,2.682 -1.584,4.545C-1.461,3.01 -1.086,1.146 0,0" style="fill:rgb(35,31,32);fill-rule:nonzero;"/>
                    </g>
                    <g transform="matrix(1,0,0,1,129.56,144.667)">
                        <path d="M0,0L28.879,0" style="fill:none;stroke:rgb(35,31,32);stroke-width:1px;"/>
                    </g>
                    <g transform="matrix(1,0,0,1,129.963,144.667)">
                        <path d="M0,0C1.045,-1.045 1.543,-3.111 1.584,-4.545C0.151,-2.62 -1.71,-0.941 -3.963,0C-1.71,0.901 0.069,2.682 1.584,4.545C1.461,3.01 1.086,1.146 0,0" style="fill:rgb(35,31,32);fill-rule:nonzero;"/>
                    </g>
                    <g transform="matrix(1,0,0,1,158.037,144.667)">
                        <path d="M0,0C-1.045,-1.045 -1.543,-3.111 -1.584,-4.545C-0.151,-2.62 1.71,-0.941 3.963,0C1.71,0.901 -0.069,2.682 -1.584,4.545C-1.461,3.01 -1.086,1.146 0,0" style="fill:rgb(35,31,32);fill-rule:nonzero;"/>
                    </g>
                    <g transform="matrix(1,0,0,1,129.56,162.667)">
                        <path d="M0,0L208.879,0" style="fill:none;stroke:rgb(35,31,32);stroke-width:1px;"/>
                    </g>
                    <g transform="matrix(1,0,0,1,129.963,162.667)">
                        <path d="M0,0C1.045,-1.045 1.543,-3.111 1.584,-4.545C0.151,-2.62 -1.71,-0.941 -3.963,0C-1.71,0.901 0.069,2.682 1.584,4.545C1.461,3.01 1.086,1.146 0,0" style="fill:rgb(35,31,32);fill-rule:nonzero;"/>
                    </g>
                    <g transform="matrix(1,0,0,1,338.037,162.667)">
                        <path d="M0,0C-1.045,-1.045 -1.543,-3.111 -1.584,-4.545C-0.151,-2.62 1.711,-0.941 3.963,0C1.711,0.901 -0.069,2.682 -1.584,4.545C-1.461,3.01 -1.086,1.146 0,0" style="fill:rgb(35,31,32);fill-rule:nonzero;"/>
                    </g>
                    <g transform="matrix(0,1,1,0,183.22,53.3866)">
                        <path d="M-39.22,-39.22L39.22,-39.22" style="fill:none;stroke:rgb(35,31,32);stroke-width:1px;"/>
                    </g>
                    <g transform="matrix(-0.378231,-0.925711,-0.925711,0.378231,148.604,92.8106)">
                        <path d="M-4.606,6.856L6.142,6.856L2.42,3.985L3.067,-0.67L-4.606,6.856Z" style="fill:rgb(35,31,32);fill-rule:nonzero;"/>
                    </g>
                    <g transform="matrix(0,1,1,0,210.22,62.3866)">
                        <path d="M-30.22,-30.22L30.22,-30.22" style="fill:none;stroke:rgb(35,31,32);stroke-width:1px;"/>
                    </g>
                    <g transform="matrix(-0.378231,-0.925711,-0.925711,0.378231,184.604,92.8106)">
                        <path d="M-4.606,6.856L6.142,6.856L2.42,3.985L3.067,-0.67L-4.606,6.856Z" style="fill:rgb(35,31,32);fill-rule:nonzero;"/>
                    </g>
                </g>
                <g id="Text">
                    <text x="57.492px" y="112.499px" style="font-family:'CMUSerif-Roman', 'CMU Serif';font-weight:500;font-size:24px;fill:rgb(35,31,32);">...</text>
                    <g>
                        <text x="141.5px" y="135.666px" style="font-family:'CMUSerif-Roman', 'CMU Serif';font-weight:500;font-size:10px;fill:rgb(35,31,32);">2</text>
                        <text x="112.5px" y="153.666px" style="font-family:'CMUTypewriter-Regular', 'CMU Typewriter Text', monospace;font-weight:500;font-size:10px;fill:rgb(35,31,32);">BytePerBlock</text>
                    </g>
                    <text x="213px" y="171.666px" style="font-family:'CMUTypewriter-Regular', 'CMU Typewriter Text', monospace;font-weight:500;font-size:10px;fill:rgb(35,31,32);">DataSize</text>
                    <text x="67px" y="135.666px" style="font-family:'CMUSerif-Roman', 'CMU Serif';font-weight:500;font-size:10px;fill:rgb(35,31,32);">44</text>
                    <text x="177.5px" y="135.666px" style="font-family:'CMUSerif-Roman', 'CMU Serif';font-weight:500;font-size:10px;fill:rgb(35,31,32);">2</text>
                    <text x="213.5px" y="135.666px" style="font-family:'CMUSerif-Roman', 'CMU Serif';font-weight:500;font-size:10px;fill:rgb(35,31,32);">2</text>
                    <text x="285.5px" y="135.666px" style="font-family:'CMUSerif-Roman', 'CMU Serif';font-weight:500;font-size:10px;fill:rgb(35,31,32);">2</text>
                    <text x="321.5px" y="135.666px" style="font-family:'CMUSerif-Roman', 'CMU Serif';font-weight:500;font-size:10px;fill:rgb(35,31,32);">2</text>
                    <g>
                        <text x="54.33px" y="81.666px" style="font-family:'CMUSerif-Roman', 'CMU Serif';font-weight:500;font-size:10px;fill:rgb(35,31,32);">e</text>
                        <text x="58.77px" y="81.666px" style="font-family:'CMUSerif-Roman', 'CMU Serif';font-weight:500;font-size:10px;fill:rgb(35,31,32);">n</text>
                        <text x="64.02px" y="81.666px" style="font-family:'CMUSerif-Roman', 'CMU Serif';font-weight:500;font-size:10px;fill:rgb(35,31,32);">tête</text>
                    </g>
                    <g>
                        <text x="126px" y="9.666px" style="font-family:'CMUSerif-Roman', 'CMU Serif';font-weight:500;font-size:10px;fill:rgb(35,31,32);">é</text>
                        <text x="130.44px" y="9.666px" style="font-family:'CMUSerif-Roman', 'CMU Serif';font-weight:500;font-size:10px;fill:rgb(35,31,32);">c</text>
                        <text x="134.58px" y="9.666px" style="font-family:'CMUSerif-Roman', 'CMU Serif';font-weight:500;font-size:10px;fill:rgb(35,31,32);">ha</text>
                        <text x="145.13px" y="9.666px" style="font-family:'CMUSerif-Roman', 'CMU Serif';font-weight:500;font-size:10px;fill:rgb(35,31,32);">n</text>
                        <text x="150.43px" y="9.666px" style="font-family:'CMUSerif-Roman', 'CMU Serif';font-weight:500;font-size:10px;fill:rgb(35,31,32);">tillon 1 du canal 1</text>
                        <text x="162px" y="27.666px" style="font-family:'CMUSerif-Roman', 'CMU Serif';font-weight:500;font-size:10px;fill:rgb(35,31,32);">é</text>
                        <text x="166.44px" y="27.666px" style="font-family:'CMUSerif-Roman', 'CMU Serif';font-weight:500;font-size:10px;fill:rgb(35,31,32);">c</text>
                        <text x="170.58px" y="27.666px" style="font-family:'CMUSerif-Roman', 'CMU Serif';font-weight:500;font-size:10px;fill:rgb(35,31,32);">ha</text>
                        <text x="181.13px" y="27.666px" style="font-family:'CMUSerif-Roman', 'CMU Serif';font-weight:500;font-size:10px;fill:rgb(35,31,32);">n</text>
                        <text x="186.43px" y="27.666px" style="font-family:'CMUSerif-Roman', 'CMU Serif';font-weight:500;font-size:10px;fill:rgb(35,31,32);">tillon 2 du canal 1</text>
                    </g>
                    <text x="241.992px" y="112.499px" style="font-family:'CMUSerif-Roman', 'CMU Serif';font-weight:500;font-size:24px;fill:rgb(35,31,32);">...</text>
                </g>
            </g>
        </g>
    </g>
</svg>
